<svg width="236" height="23" viewBox="0 0 236 23" fill="none" xmlns="http://www.w3.org/2000/svg">
<path d="M20.8849 16.772C20.8849 20.696 17.7889 23 12.4969 23H0.688938V0.319998H11.7409C17.5729 0.319998 20.2009 2.768 20.2009 6.584C20.2009 9.104 18.5809 10.832 16.1689 11.228C18.8329 11.768 20.8849 13.532 20.8849 16.772ZM11.4889 13.892H6.62894V18.104H11.5249C13.6489 18.104 14.5849 17.24 14.5849 16.016C14.5849 14.792 13.6489 13.892 11.4889 13.892ZM6.62894 5.18V9.32H10.9489C13.0369 9.32 13.8649 8.384 13.8649 7.304C13.8649 6.116 13.0369 5.18 10.9489 5.18H6.62894ZM44.0262 23H37.8342C37.3662 22.388 37.0782 20.984 36.8982 18.644C36.7182 16.052 35.6022 15.476 33.5502 15.476H29.4822V23H23.4702V0.319998H34.9182C40.7862 0.319998 43.7022 3.092 43.7022 7.52C43.7022 10.832 41.6502 12.992 38.8782 13.352C41.2182 13.82 42.5862 15.152 42.8382 17.78C43.1622 21.164 43.2702 22.172 44.0262 23ZM29.4822 10.76H33.8382C36.4302 10.76 37.7262 10.112 37.7262 8.024C37.7262 6.188 36.4302 5.216 33.8382 5.216H29.4822V10.76ZM64.2481 17.96V23H46.3921V0.319998H63.9241V5.36H52.4041V9.068H61.2961V14.036H52.4041V17.96H64.2481ZM72.8256 0.319998L81.6816 12.884V0.319998H87.2976V23H82.4016L72.6096 9.572V23H66.9936V0.319998H72.8256ZM103.791 23H97.7073V5.36H89.9313V0.319998H111.675V5.36H103.791V23ZM126.903 23H120.783V0.319998H137.919V5.36H126.903V9.716H135.183V14.684H126.903V23ZM145.141 0.319998H151.981L161.017 23H154.501L152.809 18.608H143.953L142.261 23H136.105L145.141 0.319998ZM148.309 7.34L145.717 14.036H151.045L148.453 7.34H148.309ZM162.759 0.319998H168.879V23H162.759V0.319998ZM182.51 8.492L187.37 0.319998H193.958L185.246 14.396V23H179.306V14.396L170.594 0.319998H177.398L182.51 8.492ZM199.774 0.319998H206.614L215.65 23H209.134L207.442 18.608H198.586L196.894 23H190.738L199.774 0.319998ZM202.942 7.34L200.35 14.036H205.678L203.086 7.34H202.942ZM224.448 17.96H235.968V23H216.744V18.356L227.904 5.36H216.852V0.319998H235.68V5.072L224.448 17.96Z" fill="white"/>
</svg>
