<svg width="260" height="34" viewBox="0 0 260 34" fill="none" xmlns="http://www.w3.org/2000/svg">
<path d="M0.702149 17.25C0.702149 7.55 7.65215 0.899999 16.8521 0.899999C26.5021 0.899999 31.6522 7.05 32.2521 14.9L24.1022 15.2C23.6021 11.7 21.7021 8.45 16.8021 8.45C12.1521 8.45 9.45215 11.9 9.45215 17.25C9.45215 22.6 12.1521 26.05 16.8021 26.05C21.7021 26.05 23.6021 22.8 24.1022 19.3L32.2521 19.65C31.6522 27.5 26.5021 33.6 16.8521 33.6C7.65215 33.6 0.702149 26.95 0.702149 17.25ZM66.8494 17.25C66.8494 26.95 59.6494 33.6 50.4994 33.6C41.3494 33.6 34.1494 26.95 34.1494 17.25C34.1494 7.55 41.3494 0.899999 50.4994 0.899999C59.6494 0.899999 66.8494 7.55 66.8494 17.25ZM58.0994 17.25C58.0994 11.9 55.1494 8.4 50.4994 8.4C45.8494 8.4 42.8994 11.9 42.8994 17.25C42.8994 22.6 45.8494 26.1 50.4994 26.1C55.1494 26.1 58.0994 22.6 58.0994 17.25ZM78.3662 1.5L90.6662 18.95V1.5H98.4662V33H91.6662L78.0662 14.35V33H70.2662V1.5H78.3662ZM121.374 33H112.924V8.5H102.124V1.5H132.324V8.5H121.374V33ZM141.891 1.5H151.391L163.941 33H154.891L152.541 26.9H140.241L137.891 33H129.341L141.891 1.5ZM146.291 11.25L142.691 20.55H150.091L146.491 11.25H146.291ZM163.446 17.25C163.446 7.55 170.396 0.899999 179.596 0.899999C189.246 0.899999 194.396 7.05 194.996 14.9L186.846 15.2C186.346 11.7 184.446 8.45 179.546 8.45C174.896 8.45 172.196 11.9 172.196 17.25C172.196 22.6 174.896 26.05 179.546 26.05C184.446 26.05 186.346 22.8 186.846 19.3L194.996 19.65C194.396 27.5 189.246 33.6 179.596 33.6C170.396 33.6 163.446 26.95 163.446 17.25ZM214.88 33H206.43V8.5H195.63V1.5H225.83V8.5H214.88V33ZM259.281 17.25C259.281 26.95 252.081 33.6 242.931 33.6C233.781 33.6 226.581 26.95 226.581 17.25C226.581 7.55 233.781 0.899999 242.931 0.899999C252.081 0.899999 259.281 7.55 259.281 17.25ZM250.531 17.25C250.531 11.9 247.581 8.4 242.931 8.4C238.281 8.4 235.331 11.9 235.331 17.25C235.331 22.6 238.281 26.1 242.931 26.1C247.581 26.1 250.531 22.6 250.531 17.25Z" fill="#D0D0D0"/>
</svg>
