<svg width="628" height="80" viewBox="0 0 628 80" fill="none" xmlns="http://www.w3.org/2000/svg">
<path d="M16.928 65.136H23.36C33.92 65.136 40.16 58.8 40.16 47.664C40.16 36.72 33.92 30.384 23.36 30.384H16.928V65.136ZM0.608 78V17.52H24.512C44.576 17.52 56.96 28.848 56.96 47.76C56.96 66.672 44.576 78 24.512 78H0.608ZM64.9543 17.52H81.2743V78H64.9543V17.52ZM89.2062 56.592L104.182 56.112C104.758 63.696 110.614 66.288 117.334 66.288C122.998 66.288 126.646 64.272 126.646 60.912C126.646 57.36 123.094 56.784 118.486 55.92L107.446 54C97.5582 52.176 90.6462 46.608 90.6462 36.048C90.6462 23.76 100.246 16.368 115.318 16.368C132.022 16.368 141.046 24.528 141.334 37.968L126.358 38.256C125.878 32.016 121.366 29.136 115.126 29.136C109.75 29.136 106.678 31.248 106.678 34.608C106.678 37.392 108.982 38.448 112.726 39.12L124.15 41.136C136.822 43.344 142.582 49.968 142.582 59.856C142.582 72.72 131.446 79.152 117.334 79.152C100.918 79.152 89.2062 71.184 89.2062 56.592ZM148.865 47.76C148.865 29.136 162.209 16.368 179.873 16.368C198.401 16.368 208.289 28.176 209.441 43.248L193.793 43.824C192.833 37.104 189.185 30.864 179.777 30.864C170.849 30.864 165.665 37.488 165.665 47.76C165.665 58.032 170.849 64.656 179.777 64.656C189.185 64.656 192.833 58.416 193.793 51.696L209.441 52.368C208.289 67.44 198.401 79.152 179.873 79.152C162.209 79.152 148.865 66.384 148.865 47.76ZM277.308 47.76C277.308 66.384 263.484 79.152 245.916 79.152C228.348 79.152 214.524 66.384 214.524 47.76C214.524 29.136 228.348 16.368 245.916 16.368C263.484 16.368 277.308 29.136 277.308 47.76ZM260.508 47.76C260.508 37.488 254.844 30.768 245.916 30.768C236.988 30.768 231.324 37.488 231.324 47.76C231.324 58.032 236.988 64.752 245.916 64.752C254.844 64.752 260.508 58.032 260.508 47.76ZM312.465 79.152C295.761 79.152 283.089 66.48 283.089 47.76C283.089 29.136 296.817 16.368 314.289 16.368C332.049 16.368 342.417 26.064 343.761 41.136L327.921 41.712C327.057 35.088 322.449 30.864 314.673 30.864C305.169 30.864 299.889 37.488 299.889 47.76C299.889 58.32 305.457 65.328 315.921 65.328C321.201 65.328 326.385 63.12 328.785 58.32H315.441V46.608H344.241V78H330.033V71.28C326.673 76.848 320.241 79.152 312.465 79.152ZM409.252 78H392.74C391.492 76.368 390.724 72.624 390.244 66.384C389.764 59.472 386.788 57.936 381.316 57.936H370.468V78H354.436V17.52H384.964C400.612 17.52 408.388 24.912 408.388 36.72C408.388 45.552 402.916 51.312 395.524 52.272C401.764 53.52 405.412 57.072 406.084 64.08C406.948 73.104 407.236 75.792 409.252 78ZM370.468 45.36H382.084C388.996 45.36 392.452 43.632 392.452 38.064C392.452 33.168 388.996 30.576 382.084 30.576H370.468V45.36ZM436.488 17.52H454.728L478.824 78H461.448L456.936 66.288H433.32L428.808 78H412.392L436.488 17.52ZM444.936 36.24L438.024 54.096H452.232L445.32 36.24H444.936ZM501.229 78H484.909V17.52H530.605V30.96H501.229V42.576H523.309V55.824H501.229V78ZM539.037 17.52H555.357V78H539.037V17.52ZM552.573 13.872H541.437L546.621 0.239994H561.885L552.573 13.872ZM585.465 17.52H603.705L627.801 78H610.425L605.913 66.288H582.297L577.785 78H561.369L585.465 17.52ZM593.913 36.24L587.001 54.096H601.209L594.297 36.24H593.913Z" fill="#D0D0D0"/>
</svg>
