<svg width="1021" height="119" viewBox="0 0 1021 119" fill="none" xmlns="http://www.w3.org/2000/svg">
<path d="M0.564478 75.86L28.6445 74.96C29.7245 89.18 40.7045 94.04 53.3045 94.04C63.9245 94.04 70.7645 90.26 70.7645 83.96C70.7645 77.3 64.1045 76.22 55.4645 74.6L34.7645 71C16.2245 67.58 3.26448 57.14 3.26448 37.34C3.26448 14.3 21.2645 0.439996 49.5245 0.439996C80.8445 0.439996 97.7645 15.74 98.3045 40.94L70.2245 41.48C69.3245 29.78 60.8645 24.38 49.1645 24.38C39.0845 24.38 33.3245 28.34 33.3245 34.64C33.3245 39.86 37.6445 41.84 44.6645 43.1L66.0845 46.88C89.8445 51.02 100.644 63.44 100.644 81.98C100.644 106.1 79.7645 118.16 53.3045 118.16C22.5245 118.16 0.564478 103.22 0.564478 75.86ZM141.765 75.86C141.765 87.92 146.085 96.2 156.345 96.2C166.425 96.2 170.925 87.92 170.925 75.86C170.925 63.8 166.425 55.52 156.345 55.52C146.085 55.52 141.765 63.8 141.765 75.86ZM200.265 75.86C200.265 100.88 182.445 118.16 156.345 118.16C130.065 118.16 112.425 100.88 112.425 75.86C112.425 51.02 130.065 33.56 156.345 33.56C182.445 33.56 200.265 51.02 200.265 75.86ZM243.702 76.58V116H214.542V35.72H243.702V47.78C248.022 38.96 257.562 33.56 269.622 33.56C291.582 33.56 298.602 48.86 298.602 65.6V116H269.442V73.34C269.442 62.36 266.382 56.6 257.562 56.6C247.662 56.6 243.702 64.52 243.702 76.58ZM373.807 76.4V75.32C373.807 63.8 367.507 56.24 357.787 56.24C346.267 56.24 341.227 64.34 341.227 75.86C341.227 87.56 346.267 95.66 357.787 95.66C367.507 95.66 373.807 88.1 373.807 76.4ZM373.807 116V102.32C370.027 111.68 360.847 118.16 347.527 118.16C323.767 118.16 311.887 99.62 311.887 75.86C311.887 52.28 323.767 33.56 347.527 33.56C360.847 33.56 370.027 40.04 373.807 49.58V2.59999H402.967V116H373.807ZM478.083 87.38L501.483 89.54C497.343 107.9 482.583 118.16 461.343 118.16C435.603 118.16 417.243 102.68 417.243 77.12C417.243 51.74 435.963 33.56 460.983 33.56C487.803 33.56 502.023 51.92 502.023 73.7V81.8H445.683C446.403 91.7 453.603 96.38 462.423 96.38C470.343 96.38 475.383 93.68 478.083 87.38ZM446.043 67.76H474.303C473.943 60.56 469.263 54.44 460.623 54.44C451.263 54.44 447.123 60.2 446.043 67.76ZM578.829 36.62L577.029 64.16C573.069 61.82 568.749 60.74 563.169 60.74C552.369 60.74 545.709 65.78 545.709 79.28V116H516.549V35.72H545.709V49.94C548.589 40.94 557.049 33.56 567.669 33.56C572.529 33.56 576.849 35 578.829 36.62ZM592.666 29.6V2.59999H623.086V27.8C623.086 45.44 612.826 52.82 592.666 53.36V39.5C601.306 39.14 606.166 36.8 606.346 29.6H592.666ZM626.052 89.9L651.432 89.54C652.512 96.2 657.912 99.98 666.732 99.98C673.212 99.98 676.632 97.64 676.632 94.4C676.632 91.34 674.832 89.18 669.252 88.28L657.372 86.48C637.932 83.42 627.672 77.12 627.672 60.74C627.672 44.9 641.532 33.56 664.032 33.56C687.252 33.56 700.932 43.82 702.552 60.56L678.612 61.28C677.532 55.52 672.492 51.92 663.492 51.92C657.912 51.92 654.672 54.08 654.672 57.68C654.672 60.38 656.832 61.82 659.532 62.18L675.192 64.88C693.192 67.76 703.632 75.86 703.632 91.52C703.632 108.44 689.232 118.16 666.372 118.16C644.232 118.16 627.672 109.34 626.052 89.9ZM746.764 89.9L772.144 89.54C773.224 96.2 778.624 99.98 787.444 99.98C793.924 99.98 797.344 97.64 797.344 94.4C797.344 91.34 795.544 89.18 789.964 88.28L778.084 86.48C758.644 83.42 748.384 77.12 748.384 60.74C748.384 44.9 762.244 33.56 784.744 33.56C807.964 33.56 821.644 43.82 823.264 60.56L799.324 61.28C798.244 55.52 793.204 51.92 784.204 51.92C778.624 51.92 775.384 54.08 775.384 57.68C775.384 60.38 777.544 61.82 780.244 62.18L795.904 64.88C813.904 67.76 824.344 75.86 824.344 91.52C824.344 108.44 809.944 118.16 787.084 118.16C764.944 118.16 748.384 109.34 746.764 89.9ZM863.213 75.86C863.213 87.92 867.533 96.2 877.793 96.2C887.873 96.2 892.373 87.92 892.373 75.86C892.373 63.8 887.873 55.52 877.793 55.52C867.533 55.52 863.213 63.8 863.213 75.86ZM921.713 75.86C921.713 100.88 903.893 118.16 877.793 118.16C851.513 118.16 833.873 100.88 833.873 75.86C833.873 51.02 851.513 33.56 877.793 33.56C903.893 33.56 921.713 51.02 921.713 75.86ZM965.151 76.58V116H935.991V35.72H965.151V47.78C969.471 38.96 979.011 33.56 991.071 33.56C1013.03 33.56 1020.05 48.86 1020.05 65.6V116H990.891V73.34C990.891 62.36 987.831 56.6 979.011 56.6C969.111 56.6 965.151 64.52 965.151 76.58Z" fill="#AAAAAA"/>
</svg>
